<?xml version="1.0" standalone="no"?>
 <!DOCTYPE svg PUBLIC "-//W3C//DTD SVG 1.1//EN" 
 "http://www.w3.org/Graphics/SVG/1.1/DTD/svg11.dtd"> 
<svg
  xmlns:svg="http://www.w3.org/2000/svg"
  xmlns="http://www.w3.org/2000/svg"
  xmlns:xlink="http://www.w3.org/1999/xlink"
  xmlns:inkscape="http://www.inkscape.org/namespaces/inkscape"
  version="1.1"
  width="49.9872mm" height="34.9758mm" viewBox="0.0000 0.0000 49.9872 34.9758">
<title>SVG Image created as buttons-F_Courtyard.svg date 2026-09-06T18:24:50 </title>
  <desc>Image generated by PCBNEW </desc>
<g style="fill:#000000; fill-opacity:1.0000;stroke:#000000; stroke-opacity:1.0000;
stroke-linecap:round; stroke-linejoin:round;"
 transform="translate(0 0) scale(1 1)">
<path style="fill:none; 
stroke:#FF26E2; stroke-width:0.0500; stroke-opacity:1; 
stroke-linecap:round; stroke-linejoin:round;fill:none"
d="M 39.0375,17.0200
42.4375,17.0200
42.4375,18.9800
39.0375,18.9800
Z" /> 
</g>
<g style="fill:none; 
stroke:#FF26E2; stroke-width:0.0500; stroke-opacity:1; 
stroke-linecap:round; stroke-linejoin:round;">
<path d="M14.5000 21.5000
L14.7500 21.5000
" />
<path d="M14.5000 21.7500
L14.5000 21.5000
" />
<path d="M14.5000 28.7500
L14.5000 21.7500
" />
<path d="M14.5000 28.7500
L14.5000 29.0000
" />
<path d="M14.5000 29.0000
L14.7500 29.0000
" />
<path d="M14.7500 21.5000
L23.7500 21.5000
" />
<path d="M23.7500 21.5000
L24.0000 21.5000
" />
<path d="M23.7500 29.0000
L14.7500 29.0000
" />
<path d="M23.7500 29.0000
L24.0000 29.0000
" />
<path d="M24.0000 21.5000
L24.0000 21.7500
" />
<path d="M24.0000 21.7500
L24.0000 28.7500
" />
<path d="M24.0000 29.0000
L24.0000 28.7500
" />
<path d="M25.5000 21.5000
L25.7500 21.5000
" />
<path d="M25.5000 21.7500
L25.5000 21.5000
" />
<path d="M25.5000 28.7500
L25.5000 21.7500
" />
<path d="M25.5000 28.7500
L25.5000 29.0000
" />
<path d="M25.5000 29.0000
L25.7500 29.0000
" />
<path d="M25.7500 21.5000
L34.7500 21.5000
" />
<path d="M34.7500 21.5000
L35.0000 21.5000
" />
<path d="M34.7500 29.0000
L25.7500 29.0000
" />
<path d="M34.7500 29.0000
L35.0000 29.0000
" />
<path d="M35.0000 21.5000
L35.0000 21.7500
" />
<path d="M35.0000 21.7500
L35.0000 28.7500
" />
<path d="M35.0000 29.0000
L35.0000 28.7500
" />
<path style="fill:none; 
stroke:#FF26E2; stroke-width:0.0500; stroke-opacity:1; 
stroke-linecap:round; stroke-linejoin:round;fill:none"
d="M 26.2325,14.0500
29.5925,14.0500
29.5925,15.9500
26.2325,15.9500
Z" /> 
<path style="fill:none; 
stroke:#FF26E2; stroke-width:0.0500; stroke-opacity:1; 
stroke-linecap:round; stroke-linejoin:round;fill:none"
d="M 4.2325,14.0500
7.5925,14.0500
7.5925,15.9500
4.2325,15.9500
Z" /> 
<path style="fill:none; 
stroke:#FF26E2; stroke-width:0.0500; stroke-opacity:1; 
stroke-linecap:round; stroke-linejoin:round;fill:none"
d="M 15.2325,14.0500
18.5925,14.0500
18.5925,15.9500
15.2325,15.9500
Z" /> 
<path style="fill:none; 
stroke:#FF26E2; stroke-width:0.0500; stroke-opacity:1; 
stroke-linecap:round; stroke-linejoin:round;fill:none"
d="M 28.0375,17.0200
31.4375,17.0200
31.4375,18.9800
28.0375,18.9800
Z" /> 
<path style="fill:none; 
stroke:#FF26E2; stroke-width:0.0500; stroke-opacity:1; 
stroke-linecap:round; stroke-linejoin:round;fill:none"
d="M 6.0375,17.0200
9.4375,17.0200
9.4375,18.9800
6.0375,18.9800
Z" /> 
<path d="M3.5000 21.5000
L3.7500 21.5000
" />
<path d="M3.5000 21.7500
L3.5000 21.5000
" />
<path d="M3.5000 28.7500
L3.5000 21.7500
" />
<path d="M3.5000 28.7500
L3.5000 29.0000
" />
<path d="M3.5000 29.0000
L3.7500 29.0000
" />
<path d="M3.7500 21.5000
L12.7500 21.5000
" />
<path d="M12.7500 21.5000
L13.0000 21.5000
" />
<path d="M12.7500 29.0000
L3.7500 29.0000
" />
<path d="M12.7500 29.0000
L13.0000 29.0000
" />
<path d="M13.0000 21.5000
L13.0000 21.7500
" />
<path d="M13.0000 21.7500
L13.0000 28.7500
" />
<path d="M13.0000 29.0000
L13.0000 28.7500
" />
<path style="fill:none; 
stroke:#FF26E2; stroke-width:0.0500; stroke-opacity:1; 
stroke-linecap:round; stroke-linejoin:round;fill:none"
d="M 8.2300,2.2300
24.4700,2.2300
24.4700,5.7700
8.2300,5.7700
Z" /> 
<path style="fill:none; 
stroke:#FF26E2; stroke-width:0.0500; stroke-opacity:1; 
stroke-linecap:round; stroke-linejoin:round;fill:none"
d="M 17.0375,17.0200
20.4375,17.0200
20.4375,18.9800
17.0375,18.9800
Z" /> 
<path d="M36.5000 21.5000
L36.7500 21.5000
" />
<path d="M36.5000 21.7500
L36.5000 21.5000
" />
<path d="M36.5000 28.7500
L36.5000 21.7500
" />
<path d="M36.5000 28.7500
L36.5000 29.0000
" />
<path d="M36.5000 29.0000
L36.7500 29.0000
" />
<path d="M36.7500 21.5000
L45.7500 21.5000
" />
<path d="M45.7500 21.5000
L46.0000 21.5000
" />
<path d="M45.7500 29.0000
L36.7500 29.0000
" />
<path d="M45.7500 29.0000
L46.0000 29.0000
" />
<path d="M46.0000 21.5000
L46.0000 21.7500
" />
<path d="M46.0000 21.7500
L46.0000 28.7500
" />
<path d="M46.0000 29.0000
L46.0000 28.7500
" />
<path style="fill:none; 
stroke:#FF26E2; stroke-width:0.0500; stroke-opacity:1; 
stroke-linecap:round; stroke-linejoin:round;fill:none"
d="M 37.2325,14.0500
40.5925,14.0500
40.5925,15.9500
37.2325,15.9500
Z" /> 
</g>
<g style="fill:#000000; fill-opacity:1.0000; stroke:none;">
<circle cx="16.0000" cy="23.0000" r="0.5500" /> 
<circle cx="22.5000" cy="23.0000" r="0.5500" /> 
<circle cx="16.0000" cy="27.5000" r="0.5500" /> 
<circle cx="22.5000" cy="27.5000" r="0.5500" /> 
<circle cx="27.0000" cy="23.0000" r="0.5500" /> 
<circle cx="33.5000" cy="23.0000" r="0.5500" /> 
<circle cx="27.0000" cy="27.5000" r="0.5500" /> 
<circle cx="33.5000" cy="27.5000" r="0.5500" /> 
<circle cx="5.0000" cy="23.0000" r="0.5500" /> 
<circle cx="11.5000" cy="23.0000" r="0.5500" /> 
<circle cx="5.0000" cy="27.5000" r="0.5500" /> 
<circle cx="11.5000" cy="27.5000" r="0.5500" /> 
<circle cx="10.0000" cy="4.0000" r="0.5000" /> 
<circle cx="12.5400" cy="4.0000" r="0.5000" /> 
<circle cx="15.0800" cy="4.0000" r="0.5000" /> 
<circle cx="17.6200" cy="4.0000" r="0.5000" /> 
<circle cx="20.1600" cy="4.0000" r="0.5000" /> 
<circle cx="22.7000" cy="4.0000" r="0.5000" /> 
<circle cx="38.0000" cy="23.0000" r="0.5500" /> 
<circle cx="44.5000" cy="23.0000" r="0.5500" /> 
<circle cx="38.0000" cy="27.5000" r="0.5500" /> 
<circle cx="44.5000" cy="27.5000" r="0.5500" /> 
</g> 
</svg>
