<?xml version="1.0" standalone="no"?>
 <!DOCTYPE svg PUBLIC "-//W3C//DTD SVG 1.1//EN" 
 "http://www.w3.org/Graphics/SVG/1.1/DTD/svg11.dtd"> 
<svg
  xmlns:svg="http://www.w3.org/2000/svg"
  xmlns="http://www.w3.org/2000/svg"
  xmlns:xlink="http://www.w3.org/1999/xlink"
  xmlns:inkscape="http://www.inkscape.org/namespaces/inkscape"
  version="1.1"
  width="79.9846mm" height="49.9872mm" viewBox="0.0000 0.0000 79.9846 49.9872">
<title>SVG Image created as analog_input-F_Paste.svg date 2026-09-06T18:03:09 </title>
  <desc>Image generated by PCBNEW </desc>
<g style="fill:#000000; fill-opacity:1.0000;stroke:#000000; stroke-opacity:1.0000;
stroke-linecap:round; stroke-linejoin:round;"
 transform="translate(0 0) scale(1 1)">
<path style="fill:#B4A09A; fill-opacity:0.9000; stroke:none;fill-rule:evenodd;"
d="M 20.5750,21.5500
20.5940,21.4543
20.6482,21.3732
20.7293,21.3190
20.8250,21.3000
21.3500,21.3000
21.4457,21.3190
21.5268,21.3732
21.5810,21.4543
21.6000,21.5500
21.6000,22.4500
21.5810,22.5457
21.5268,22.6268
21.4457,22.6810
21.3500,22.7000
20.8250,22.7000
20.7293,22.6810
20.6482,22.6268
20.5940,22.5457
20.5750,22.4500
Z" /> 
<path style="fill:#B4A09A; fill-opacity:0.9000; stroke:none;fill-rule:evenodd;"
d="M 22.4000,21.5500
22.4190,21.4543
22.4732,21.3732
22.5543,21.3190
22.6500,21.3000
23.1750,21.3000
23.2707,21.3190
23.3518,21.3732
23.4060,21.4543
23.4250,21.5500
23.4250,22.4500
23.4060,22.5457
23.3518,22.6268
23.2707,22.6810
23.1750,22.7000
22.6500,22.7000
22.5543,22.6810
22.4732,22.6268
22.4190,22.5457
22.4000,22.4500
Z" /> 
<path style="fill:#B4A09A; fill-opacity:0.9000; stroke:none;fill-rule:evenodd;"
d="M 32.5750,28.5500
32.5940,28.4543
32.6482,28.3732
32.7293,28.3190
32.8250,28.3000
33.3500,28.3000
33.4457,28.3190
33.5268,28.3732
33.5810,28.4543
33.6000,28.5500
33.6000,29.4500
33.5810,29.5457
33.5268,29.6268
33.4457,29.6810
33.3500,29.7000
32.8250,29.7000
32.7293,29.6810
32.6482,29.6268
32.5940,29.5457
32.5750,29.4500
Z" /> 
<path style="fill:#B4A09A; fill-opacity:0.9000; stroke:none;fill-rule:evenodd;"
d="M 34.4000,28.5500
34.4190,28.4543
34.4732,28.3732
34.5543,28.3190
34.6500,28.3000
35.1750,28.3000
35.2707,28.3190
35.3518,28.3732
35.4060,28.4543
35.4250,28.5500
35.4250,29.4500
35.4060,29.5457
35.3518,29.6268
35.2707,29.6810
35.1750,29.7000
34.6500,29.7000
34.5543,29.6810
34.4732,29.6268
34.4190,29.5457
34.4000,29.4500
Z" /> 
<path style="fill:#B4A09A; fill-opacity:0.9000; stroke:none;fill-rule:evenodd;"
d="M 41.0250,40.9500
40.9293,40.9310
40.8482,40.8768
40.7940,40.7957
40.7750,40.7000
40.7750,40.2000
40.7940,40.1043
40.8482,40.0232
40.9293,39.9690
41.0250,39.9500
41.9750,39.9500
42.0707,39.9690
42.1518,40.0232
42.2060,40.1043
42.2250,40.2000
42.2250,40.7000
42.2060,40.7957
42.1518,40.8768
42.0707,40.9310
41.9750,40.9500
Z" /> 
<path style="fill:#B4A09A; fill-opacity:0.9000; stroke:none;fill-rule:evenodd;"
d="M 41.0250,39.0500
40.9293,39.0310
40.8482,38.9768
40.7940,38.8957
40.7750,38.8000
40.7750,38.3000
40.7940,38.2043
40.8482,38.1232
40.9293,38.0690
41.0250,38.0500
41.9750,38.0500
42.0707,38.0690
42.1518,38.1232
42.2060,38.2043
42.2250,38.3000
42.2250,38.8000
42.2060,38.8957
42.1518,38.9768
42.0707,39.0310
41.9750,39.0500
Z" /> 
<path style="fill:#B4A09A; fill-opacity:0.9000; stroke:none;fill-rule:evenodd;"
d="M 56.5750,28.5500
56.5940,28.4543
56.6482,28.3732
56.7293,28.3190
56.8250,28.3000
57.3500,28.3000
57.4457,28.3190
57.5268,28.3732
57.5810,28.4543
57.6000,28.5500
57.6000,29.4500
57.5810,29.5457
57.5268,29.6268
57.4457,29.6810
57.3500,29.7000
56.8250,29.7000
56.7293,29.6810
56.6482,29.6268
56.5940,29.5457
56.5750,29.4500
Z" /> 
<path style="fill:#B4A09A; fill-opacity:0.9000; stroke:none;fill-rule:evenodd;"
d="M 58.4000,28.5500
58.4190,28.4543
58.4732,28.3732
58.5543,28.3190
58.6500,28.3000
59.1750,28.3000
59.2707,28.3190
59.3518,28.3732
59.4060,28.4543
59.4250,28.5500
59.4250,29.4500
59.4060,29.5457
59.3518,29.6268
59.2707,29.6810
59.1750,29.7000
58.6500,29.7000
58.5543,29.6810
58.4732,29.6268
58.4190,29.5457
58.4000,29.4500
Z" /> 
<path style="fill:#B4A09A; fill-opacity:0.9000; stroke:none;fill-rule:evenodd;"
d="M 20.5750,28.5500
20.5940,28.4543
20.6482,28.3732
20.7293,28.3190
20.8250,28.3000
21.3500,28.3000
21.4457,28.3190
21.5268,28.3732
21.5810,28.4543
21.6000,28.5500
21.6000,29.4500
21.5810,29.5457
21.5268,29.6268
21.4457,29.6810
21.3500,29.7000
20.8250,29.7000
20.7293,29.6810
20.6482,29.6268
20.5940,29.5457
20.5750,29.4500
Z" /> 
<path style="fill:#B4A09A; fill-opacity:0.9000; stroke:none;fill-rule:evenodd;"
d="M 22.4000,28.5500
22.4190,28.4543
22.4732,28.3732
22.5543,28.3190
22.6500,28.3000
23.1750,28.3000
23.2707,28.3190
23.3518,28.3732
23.4060,28.4543
23.4250,28.5500
23.4250,29.4500
23.4060,29.5457
23.3518,29.6268
23.2707,29.6810
23.1750,29.7000
22.6500,29.7000
22.5543,29.6810
22.4732,29.6268
22.4190,29.5457
22.4000,29.4500
Z" /> 
<path style="fill:#B4A09A; fill-opacity:0.9000; stroke:none;fill-rule:evenodd;"
d="M 32.5750,14.5500
32.5940,14.4543
32.6482,14.3732
32.7293,14.3190
32.8250,14.3000
33.3500,14.3000
33.4457,14.3190
33.5268,14.3732
33.5810,14.4543
33.6000,14.5500
33.6000,15.4500
33.5810,15.5457
33.5268,15.6268
33.4457,15.6810
33.3500,15.7000
32.8250,15.7000
32.7293,15.6810
32.6482,15.6268
32.5940,15.5457
32.5750,15.4500
Z" /> 
<path style="fill:#B4A09A; fill-opacity:0.9000; stroke:none;fill-rule:evenodd;"
d="M 34.4000,14.5500
34.4190,14.4543
34.4732,14.3732
34.5543,14.3190
34.6500,14.3000
35.1750,14.3000
35.2707,14.3190
35.3518,14.3732
35.4060,14.4543
35.4250,14.5500
35.4250,15.4500
35.4060,15.5457
35.3518,15.6268
35.2707,15.6810
35.1750,15.7000
34.6500,15.7000
34.5543,15.6810
34.4732,15.6268
34.4190,15.5457
34.4000,15.4500
Z" /> 
<path style="fill:#B4A09A; fill-opacity:0.9000; stroke:none;fill-rule:evenodd;"
d="M 38.0250,40.9500
37.9293,40.9310
37.8482,40.8768
37.7940,40.7957
37.7750,40.7000
37.7750,40.2000
37.7940,40.1043
37.8482,40.0232
37.9293,39.9690
38.0250,39.9500
38.9750,39.9500
39.0707,39.9690
39.1518,40.0232
39.2060,40.1043
39.2250,40.2000
39.2250,40.7000
39.2060,40.7957
39.1518,40.8768
39.0707,40.9310
38.9750,40.9500
Z" /> 
<path style="fill:#B4A09A; fill-opacity:0.9000; stroke:none;fill-rule:evenodd;"
d="M 38.0250,39.0500
37.9293,39.0310
37.8482,38.9768
37.7940,38.8957
37.7750,38.8000
37.7750,38.3000
37.7940,38.2043
37.8482,38.1232
37.9293,38.0690
38.0250,38.0500
38.9750,38.0500
39.0707,38.0690
39.1518,38.1232
39.2060,38.2043
39.2250,38.3000
39.2250,38.8000
39.2060,38.8957
39.1518,38.9768
39.0707,39.0310
38.9750,39.0500
Z" /> 
<path style="fill:#B4A09A; fill-opacity:0.9000; stroke:none;fill-rule:evenodd;"
d="M 68.5750,28.5500
68.5940,28.4543
68.6482,28.3732
68.7293,28.3190
68.8250,28.3000
69.3500,28.3000
69.4457,28.3190
69.5268,28.3732
69.5810,28.4543
69.6000,28.5500
69.6000,29.4500
69.5810,29.5457
69.5268,29.6268
69.4457,29.6810
69.3500,29.7000
68.8250,29.7000
68.7293,29.6810
68.6482,29.6268
68.5940,29.5457
68.5750,29.4500
Z" /> 
<path style="fill:#B4A09A; fill-opacity:0.9000; stroke:none;fill-rule:evenodd;"
d="M 70.4000,28.5500
70.4190,28.4543
70.4732,28.3732
70.5543,28.3190
70.6500,28.3000
71.1750,28.3000
71.2707,28.3190
71.3518,28.3732
71.4060,28.4543
71.4250,28.5500
71.4250,29.4500
71.4060,29.5457
71.3518,29.6268
71.2707,29.6810
71.1750,29.7000
70.6500,29.7000
70.5543,29.6810
70.4732,29.6268
70.4190,29.5457
70.4000,29.4500
Z" /> 
<path style="fill:#B4A09A; fill-opacity:0.9000; stroke:none;fill-rule:evenodd;"
d="M 68.5750,21.5500
68.5940,21.4543
68.6482,21.3732
68.7293,21.3190
68.8250,21.3000
69.3500,21.3000
69.4457,21.3190
69.5268,21.3732
69.5810,21.4543
69.6000,21.5500
69.6000,22.4500
69.5810,22.5457
69.5268,22.6268
69.4457,22.6810
69.3500,22.7000
68.8250,22.7000
68.7293,22.6810
68.6482,22.6268
68.5940,22.5457
68.5750,22.4500
Z" /> 
<path style="fill:#B4A09A; fill-opacity:0.9000; stroke:none;fill-rule:evenodd;"
d="M 70.4000,21.5500
70.4190,21.4543
70.4732,21.3732
70.5543,21.3190
70.6500,21.3000
71.1750,21.3000
71.2707,21.3190
71.3518,21.3732
71.4060,21.4543
71.4250,21.5500
71.4250,22.4500
71.4060,22.5457
71.3518,22.6268
71.2707,22.6810
71.1750,22.7000
70.6500,22.7000
70.5543,22.6810
70.4732,22.6268
70.4190,22.5457
70.4000,22.4500
Z" /> 
<path style="fill:#B4A09A; fill-opacity:0.9000; stroke:none;fill-rule:evenodd;"
d="M 8.5750,14.5500
8.5940,14.4543
8.6482,14.3732
8.7293,14.3190
8.8250,14.3000
9.3500,14.3000
9.4457,14.3190
9.5268,14.3732
9.5810,14.4543
9.6000,14.5500
9.6000,15.4500
9.5810,15.5457
9.5268,15.6268
9.4457,15.6810
9.3500,15.7000
8.8250,15.7000
8.7293,15.6810
8.6482,15.6268
8.5940,15.5457
8.5750,15.4500
Z" /> 
<path style="fill:#B4A09A; fill-opacity:0.9000; stroke:none;fill-rule:evenodd;"
d="M 10.4000,14.5500
10.4190,14.4543
10.4732,14.3732
10.5543,14.3190
10.6500,14.3000
11.1750,14.3000
11.2707,14.3190
11.3518,14.3732
11.4060,14.4543
11.4250,14.5500
11.4250,15.4500
11.4060,15.5457
11.3518,15.6268
11.2707,15.6810
11.1750,15.7000
10.6500,15.7000
10.5543,15.6810
10.4732,15.6268
10.4190,15.5457
10.4000,15.4500
Z" /> 
<path style="fill:#B4A09A; fill-opacity:0.9000; stroke:none;fill-rule:evenodd;"
d="M 44.0250,40.9500
43.9293,40.9310
43.8482,40.8768
43.7940,40.7957
43.7750,40.7000
43.7750,40.2000
43.7940,40.1043
43.8482,40.0232
43.9293,39.9690
44.0250,39.9500
44.9750,39.9500
45.0707,39.9690
45.1518,40.0232
45.2060,40.1043
45.2250,40.2000
45.2250,40.7000
45.2060,40.7957
45.1518,40.8768
45.0707,40.9310
44.9750,40.9500
Z" /> 
<path style="fill:#B4A09A; fill-opacity:0.9000; stroke:none;fill-rule:evenodd;"
d="M 44.0250,39.0500
43.9293,39.0310
43.8482,38.9768
43.7940,38.8957
43.7750,38.8000
43.7750,38.3000
43.7940,38.2043
43.8482,38.1232
43.9293,38.0690
44.0250,38.0500
44.9750,38.0500
45.0707,38.0690
45.1518,38.1232
45.2060,38.2043
45.2250,38.3000
45.2250,38.8000
45.2060,38.8957
45.1518,38.9768
45.0707,39.0310
44.9750,39.0500
Z" /> 
<path style="fill:#B4A09A; fill-opacity:0.9000; stroke:none;fill-rule:evenodd;"
d="M 35.0250,40.9500
34.9293,40.9310
34.8482,40.8768
34.7940,40.7957
34.7750,40.7000
34.7750,40.2000
34.7940,40.1043
34.8482,40.0232
34.9293,39.9690
35.0250,39.9500
35.9750,39.9500
36.0707,39.9690
36.1518,40.0232
36.2060,40.1043
36.2250,40.2000
36.2250,40.7000
36.2060,40.7957
36.1518,40.8768
36.0707,40.9310
35.9750,40.9500
Z" /> 
<path style="fill:#B4A09A; fill-opacity:0.9000; stroke:none;fill-rule:evenodd;"
d="M 35.0250,39.0500
34.9293,39.0310
34.8482,38.9768
34.7940,38.8957
34.7750,38.8000
34.7750,38.3000
34.7940,38.2043
34.8482,38.1232
34.9293,38.0690
35.0250,38.0500
35.9750,38.0500
36.0707,38.0690
36.1518,38.1232
36.2060,38.2043
36.2250,38.3000
36.2250,38.8000
36.2060,38.8957
36.1518,38.9768
36.0707,39.0310
35.9750,39.0500
Z" /> 
<path style="fill:#B4A09A; fill-opacity:0.9000; stroke:none;fill-rule:evenodd;"
d="M 44.5750,14.5500
44.5940,14.4543
44.6482,14.3732
44.7293,14.3190
44.8250,14.3000
45.3500,14.3000
45.4457,14.3190
45.5268,14.3732
45.5810,14.4543
45.6000,14.5500
45.6000,15.4500
45.5810,15.5457
45.5268,15.6268
45.4457,15.6810
45.3500,15.7000
44.8250,15.7000
44.7293,15.6810
44.6482,15.6268
44.5940,15.5457
44.5750,15.4500
Z" /> 
<path style="fill:#B4A09A; fill-opacity:0.9000; stroke:none;fill-rule:evenodd;"
d="M 46.4000,14.5500
46.4190,14.4543
46.4732,14.3732
46.5543,14.3190
46.6500,14.3000
47.1750,14.3000
47.2707,14.3190
47.3518,14.3732
47.4060,14.4543
47.4250,14.5500
47.4250,15.4500
47.4060,15.5457
47.3518,15.6268
47.2707,15.6810
47.1750,15.7000
46.6500,15.7000
46.5543,15.6810
46.4732,15.6268
46.4190,15.5457
46.4000,15.4500
Z" /> 
<path style="fill:#B4A09A; fill-opacity:0.9000; stroke:none;fill-rule:evenodd;"
d="M 56.5750,14.5500
56.5940,14.4543
56.6482,14.3732
56.7293,14.3190
56.8250,14.3000
57.3500,14.3000
57.4457,14.3190
57.5268,14.3732
57.5810,14.4543
57.6000,14.5500
57.6000,15.4500
57.5810,15.5457
57.5268,15.6268
57.4457,15.6810
57.3500,15.7000
56.8250,15.7000
56.7293,15.6810
56.6482,15.6268
56.5940,15.5457
56.5750,15.4500
Z" /> 
<path style="fill:#B4A09A; fill-opacity:0.9000; stroke:none;fill-rule:evenodd;"
d="M 58.4000,14.5500
58.4190,14.4543
58.4732,14.3732
58.5543,14.3190
58.6500,14.3000
59.1750,14.3000
59.2707,14.3190
59.3518,14.3732
59.4060,14.4543
59.4250,14.5500
59.4250,15.4500
59.4060,15.5457
59.3518,15.6268
59.2707,15.6810
59.1750,15.7000
58.6500,15.7000
58.5543,15.6810
58.4732,15.6268
58.4190,15.5457
58.4000,15.4500
Z" /> 
<path style="fill:#B4A09A; fill-opacity:0.9000; stroke:none;fill-rule:evenodd;"
d="M 20.5750,14.5500
20.5940,14.4543
20.6482,14.3732
20.7293,14.3190
20.8250,14.3000
21.3500,14.3000
21.4457,14.3190
21.5268,14.3732
21.5810,14.4543
21.6000,14.5500
21.6000,15.4500
21.5810,15.5457
21.5268,15.6268
21.4457,15.6810
21.3500,15.7000
20.8250,15.7000
20.7293,15.6810
20.6482,15.6268
20.5940,15.5457
20.5750,15.4500
Z" /> 
<path style="fill:#B4A09A; fill-opacity:0.9000; stroke:none;fill-rule:evenodd;"
d="M 22.4000,14.5500
22.4190,14.4543
22.4732,14.3732
22.5543,14.3190
22.6500,14.3000
23.1750,14.3000
23.2707,14.3190
23.3518,14.3732
23.4060,14.4543
23.4250,14.5500
23.4250,15.4500
23.4060,15.5457
23.3518,15.6268
23.2707,15.6810
23.1750,15.7000
22.6500,15.7000
22.5543,15.6810
22.4732,15.6268
22.4190,15.5457
22.4000,15.4500
Z" /> 
<path style="fill:#B4A09A; fill-opacity:0.9000; stroke:none;fill-rule:evenodd;"
d="M 44.5750,21.5500
44.5940,21.4543
44.6482,21.3732
44.7293,21.3190
44.8250,21.3000
45.3500,21.3000
45.4457,21.3190
45.5268,21.3732
45.5810,21.4543
45.6000,21.5500
45.6000,22.4500
45.5810,22.5457
45.5268,22.6268
45.4457,22.6810
45.3500,22.7000
44.8250,22.7000
44.7293,22.6810
44.6482,22.6268
44.5940,22.5457
44.5750,22.4500
Z" /> 
<path style="fill:#B4A09A; fill-opacity:0.9000; stroke:none;fill-rule:evenodd;"
d="M 46.4000,21.5500
46.4190,21.4543
46.4732,21.3732
46.5543,21.3190
46.6500,21.3000
47.1750,21.3000
47.2707,21.3190
47.3518,21.3732
47.4060,21.4543
47.4250,21.5500
47.4250,22.4500
47.4060,22.5457
47.3518,22.6268
47.2707,22.6810
47.1750,22.7000
46.6500,22.7000
46.5543,22.6810
46.4732,22.6268
46.4190,22.5457
46.4000,22.4500
Z" /> 
<path style="fill:#B4A09A; fill-opacity:0.9000; stroke:none;fill-rule:evenodd;"
d="M 32.0250,40.9500
31.9293,40.9310
31.8482,40.8768
31.7940,40.7957
31.7750,40.7000
31.7750,40.2000
31.7940,40.1043
31.8482,40.0232
31.9293,39.9690
32.0250,39.9500
32.9750,39.9500
33.0707,39.9690
33.1518,40.0232
33.2060,40.1043
33.2250,40.2000
33.2250,40.7000
33.2060,40.7957
33.1518,40.8768
33.0707,40.9310
32.9750,40.9500
Z" /> 
<path style="fill:#B4A09A; fill-opacity:0.9000; stroke:none;fill-rule:evenodd;"
d="M 32.0250,39.0500
31.9293,39.0310
31.8482,38.9768
31.7940,38.8957
31.7750,38.8000
31.7750,38.3000
31.7940,38.2043
31.8482,38.1232
31.9293,38.0690
32.0250,38.0500
32.9750,38.0500
33.0707,38.0690
33.1518,38.1232
33.2060,38.2043
33.2250,38.3000
33.2250,38.8000
33.2060,38.8957
33.1518,38.9768
33.0707,39.0310
32.9750,39.0500
Z" /> 
<path style="fill:#B4A09A; fill-opacity:0.9000; stroke:none;fill-rule:evenodd;"
d="M 8.5750,21.5500
8.5940,21.4543
8.6482,21.3732
8.7293,21.3190
8.8250,21.3000
9.3500,21.3000
9.4457,21.3190
9.5268,21.3732
9.5810,21.4543
9.6000,21.5500
9.6000,22.4500
9.5810,22.5457
9.5268,22.6268
9.4457,22.6810
9.3500,22.7000
8.8250,22.7000
8.7293,22.6810
8.6482,22.6268
8.5940,22.5457
8.5750,22.4500
Z" /> 
<path style="fill:#B4A09A; fill-opacity:0.9000; stroke:none;fill-rule:evenodd;"
d="M 10.4000,21.5500
10.4190,21.4543
10.4732,21.3732
10.5543,21.3190
10.6500,21.3000
11.1750,21.3000
11.2707,21.3190
11.3518,21.3732
11.4060,21.4543
11.4250,21.5500
11.4250,22.4500
11.4060,22.5457
11.3518,22.6268
11.2707,22.6810
11.1750,22.7000
10.6500,22.7000
10.5543,22.6810
10.4732,22.6268
10.4190,22.5457
10.4000,22.4500
Z" /> 
<path style="fill:#B4A09A; fill-opacity:0.9000; stroke:none;fill-rule:evenodd;"
d="M 47.0250,40.9500
46.9293,40.9310
46.8482,40.8768
46.7940,40.7957
46.7750,40.7000
46.7750,40.2000
46.7940,40.1043
46.8482,40.0232
46.9293,39.9690
47.0250,39.9500
47.9750,39.9500
48.0707,39.9690
48.1518,40.0232
48.2060,40.1043
48.2250,40.2000
48.2250,40.7000
48.2060,40.7957
48.1518,40.8768
48.0707,40.9310
47.9750,40.9500
Z" /> 
<path style="fill:#B4A09A; fill-opacity:0.9000; stroke:none;fill-rule:evenodd;"
d="M 47.0250,39.0500
46.9293,39.0310
46.8482,38.9768
46.7940,38.8957
46.7750,38.8000
46.7750,38.3000
46.7940,38.2043
46.8482,38.1232
46.9293,38.0690
47.0250,38.0500
47.9750,38.0500
48.0707,38.0690
48.1518,38.1232
48.2060,38.2043
48.2250,38.3000
48.2250,38.8000
48.2060,38.8957
48.1518,38.9768
48.0707,39.0310
47.9750,39.0500
Z" /> 
<path style="fill:#B4A09A; fill-opacity:0.9000; stroke:none;fill-rule:evenodd;"
d="M 32.5750,21.5500
32.5940,21.4543
32.6482,21.3732
32.7293,21.3190
32.8250,21.3000
33.3500,21.3000
33.4457,21.3190
33.5268,21.3732
33.5810,21.4543
33.6000,21.5500
33.6000,22.4500
33.5810,22.5457
33.5268,22.6268
33.4457,22.6810
33.3500,22.7000
32.8250,22.7000
32.7293,22.6810
32.6482,22.6268
32.5940,22.5457
32.5750,22.4500
Z" /> 
<path style="fill:#B4A09A; fill-opacity:0.9000; stroke:none;fill-rule:evenodd;"
d="M 34.4000,21.5500
34.4190,21.4543
34.4732,21.3732
34.5543,21.3190
34.6500,21.3000
35.1750,21.3000
35.2707,21.3190
35.3518,21.3732
35.4060,21.4543
35.4250,21.5500
35.4250,22.4500
35.4060,22.5457
35.3518,22.6268
35.2707,22.6810
35.1750,22.7000
34.6500,22.7000
34.5543,22.6810
34.4732,22.6268
34.4190,22.5457
34.4000,22.4500
Z" /> 
<path style="fill:#B4A09A; fill-opacity:0.9000; stroke:none;fill-rule:evenodd;"
d="M 56.5750,21.5500
56.5940,21.4543
56.6482,21.3732
56.7293,21.3190
56.8250,21.3000
57.3500,21.3000
57.4457,21.3190
57.5268,21.3732
57.5810,21.4543
57.6000,21.5500
57.6000,22.4500
57.5810,22.5457
57.5268,22.6268
57.4457,22.6810
57.3500,22.7000
56.8250,22.7000
56.7293,22.6810
56.6482,22.6268
56.5940,22.5457
56.5750,22.4500
Z" /> 
<path style="fill:#B4A09A; fill-opacity:0.9000; stroke:none;fill-rule:evenodd;"
d="M 58.4000,21.5500
58.4190,21.4543
58.4732,21.3732
58.5543,21.3190
58.6500,21.3000
59.1750,21.3000
59.2707,21.3190
59.3518,21.3732
59.4060,21.4543
59.4250,21.5500
59.4250,22.4500
59.4060,22.5457
59.3518,22.6268
59.2707,22.6810
59.1750,22.7000
58.6500,22.7000
58.5543,22.6810
58.4732,22.6268
58.4190,22.5457
58.4000,22.4500
Z" /> 
<path style="fill:#B4A09A; fill-opacity:0.9000; stroke:none;fill-rule:evenodd;"
d="M 68.5750,14.5500
68.5940,14.4543
68.6482,14.3732
68.7293,14.3190
68.8250,14.3000
69.3500,14.3000
69.4457,14.3190
69.5268,14.3732
69.5810,14.4543
69.6000,14.5500
69.6000,15.4500
69.5810,15.5457
69.5268,15.6268
69.4457,15.6810
69.3500,15.7000
68.8250,15.7000
68.7293,15.6810
68.6482,15.6268
68.5940,15.5457
68.5750,15.4500
Z" /> 
<path style="fill:#B4A09A; fill-opacity:0.9000; stroke:none;fill-rule:evenodd;"
d="M 70.4000,14.5500
70.4190,14.4543
70.4732,14.3732
70.5543,14.3190
70.6500,14.3000
71.1750,14.3000
71.2707,14.3190
71.3518,14.3732
71.4060,14.4543
71.4250,14.5500
71.4250,15.4500
71.4060,15.5457
71.3518,15.6268
71.2707,15.6810
71.1750,15.7000
70.6500,15.7000
70.5543,15.6810
70.4732,15.6268
70.4190,15.5457
70.4000,15.4500
Z" /> 
<path style="fill:#B4A09A; fill-opacity:0.9000; stroke:none;fill-rule:evenodd;"
d="M 44.5750,28.5500
44.5940,28.4543
44.6482,28.3732
44.7293,28.3190
44.8250,28.3000
45.3500,28.3000
45.4457,28.3190
45.5268,28.3732
45.5810,28.4543
45.6000,28.5500
45.6000,29.4500
45.5810,29.5457
45.5268,29.6268
45.4457,29.6810
45.3500,29.7000
44.8250,29.7000
44.7293,29.6810
44.6482,29.6268
44.5940,29.5457
44.5750,29.4500
Z" /> 
<path style="fill:#B4A09A; fill-opacity:0.9000; stroke:none;fill-rule:evenodd;"
d="M 46.4000,28.5500
46.4190,28.4543
46.4732,28.3732
46.5543,28.3190
46.6500,28.3000
47.1750,28.3000
47.2707,28.3190
47.3518,28.3732
47.4060,28.4543
47.4250,28.5500
47.4250,29.4500
47.4060,29.5457
47.3518,29.6268
47.2707,29.6810
47.1750,29.7000
46.6500,29.7000
46.5543,29.6810
46.4732,29.6268
46.4190,29.5457
46.4000,29.4500
Z" /> 
<path style="fill:#B4A09A; fill-opacity:0.9000; stroke:none;fill-rule:evenodd;"
d="M 8.5750,28.5500
8.5940,28.4543
8.6482,28.3732
8.7293,28.3190
8.8250,28.3000
9.3500,28.3000
9.4457,28.3190
9.5268,28.3732
9.5810,28.4543
9.6000,28.5500
9.6000,29.4500
9.5810,29.5457
9.5268,29.6268
9.4457,29.6810
9.3500,29.7000
8.8250,29.7000
8.7293,29.6810
8.6482,29.6268
8.5940,29.5457
8.5750,29.4500
Z" /> 
<path style="fill:#B4A09A; fill-opacity:0.9000; stroke:none;fill-rule:evenodd;"
d="M 10.4000,28.5500
10.4190,28.4543
10.4732,28.3732
10.5543,28.3190
10.6500,28.3000
11.1750,28.3000
11.2707,28.3190
11.3518,28.3732
11.4060,28.4543
11.4250,28.5500
11.4250,29.4500
11.4060,29.5457
11.3518,29.6268
11.2707,29.6810
11.1750,29.7000
10.6500,29.7000
10.5543,29.6810
10.4732,29.6268
10.4190,29.5457
10.4000,29.4500
Z" /> 
</g>
<g style="fill:#000000; fill-opacity:1.0000; stroke:none;">
<circle cx="4.0000" cy="46.0000" r="1.6000" /> 
<circle cx="58.0000" cy="4.0000" r="0.5000" /> 
<circle cx="58.0000" cy="6.5400" r="0.5000" /> 
<circle cx="70.0000" cy="4.0000" r="0.5000" /> 
<circle cx="70.0000" cy="6.5400" r="0.5000" /> 
<circle cx="34.0000" cy="4.0000" r="0.5000" /> 
<circle cx="34.0000" cy="6.5400" r="0.5000" /> 
<circle cx="10.0000" cy="4.0000" r="0.5000" /> 
<circle cx="10.0000" cy="6.5400" r="0.5000" /> 
<circle cx="4.0000" cy="4.0000" r="1.6000" /> 
<circle cx="31.1100" cy="45.0000" r="0.5000" /> 
<circle cx="33.6500" cy="45.0000" r="0.5000" /> 
<circle cx="36.1900" cy="45.0000" r="0.5000" /> 
<circle cx="38.7300" cy="45.0000" r="0.5000" /> 
<circle cx="41.2700" cy="45.0000" r="0.5000" /> 
<circle cx="43.8100" cy="45.0000" r="0.5000" /> 
<circle cx="46.3500" cy="45.0000" r="0.5000" /> 
<circle cx="48.8900" cy="45.0000" r="0.5000" /> 
<circle cx="76.0000" cy="46.0000" r="1.6000" /> 
<circle cx="22.0000" cy="4.0000" r="0.5000" /> 
<circle cx="22.0000" cy="6.5400" r="0.5000" /> 
<circle cx="46.0000" cy="4.0000" r="0.5000" /> 
<circle cx="46.0000" cy="6.5400" r="0.5000" /> 
<circle cx="76.0000" cy="4.0000" r="1.6000" /> 
</g> 
</svg>
